# xmcd CD database file
#
# Track frame offsets:
#	150
#	13528
#	33006
#	48396
#	63190
#	79149
#	90600
#	108267
#	120614
#	131883
#	146247
#	159836
#	176377
#	187445
#	201160
#	216021
#	226910
#	240457
#	261937
#	273618
#
# Disc length: 3820 seconds
#
# Revision: 0
# Processed by: cddbd v1.5.1PL0 Copyright (c) Steve Scherf et al.
# Submitted via: CDex 1.51
#
DISCID=180eea14
DTITLE=Bud Powell - BD Jazz (1)
DYEAR=2004
DGENRE=Jazz
TTITLE0=I want to be happy
TTITLE1=A night in Tunisia
TTITLE2=Reets and I
TTITLE3=It could happen to you
TTITLE4=Tea for two
TTITLE5=Hallucinations (budo)
TTITLE6=Just one of those things
TTITLE7=I'll keep loving you
TTITLE8=Tempus fugit (Tempus Fugue-it)
TTITLE9=Strictly confidential
TTITLE10=Celia
TTITLE11=Cherokee
TTITLE12=Glass enclosure
TTITLE13=All God's chillun got rhythm
TTITLE14=You go to my head
TTITLE15=Ornithology
TTITLE16=Over the rainbow
TTITLE17=Un poco loco
TTITLE18=Bud's bubble (Crazeology)
TTITLE19=Somebody loves me
EXTD=YEAR: 2004
EXTT0=
EXTT1=
EXTT2=
EXTT3=
EXTT4=
EXTT5=
EXTT6=
EXTT7=
EXTT8=
EXTT9=
EXTT10=
EXTT11=
EXTT12=
EXTT13=
EXTT14=
EXTT15=
EXTT16=
EXTT17=
EXTT18=
EXTT19=
PLAYORDER=
